<?xml version="1.0" encoding="UTF-8" standalone="no"?>
<!-- Created with Inkscape (http://www.inkscape.org/) -->

<svg
   xmlns:dc="http://purl.org/dc/elements/1.1/"
   xmlns:cc="http://creativecommons.org/ns#"
   xmlns:rdf="http://www.w3.org/1999/02/22-rdf-syntax-ns#"
   xmlns:svg="http://www.w3.org/2000/svg"
   xmlns="http://www.w3.org/2000/svg"
   xmlns:xlink="http://www.w3.org/1999/xlink"
   version="1.1"
   width="500"
   height="500"
   id="svg2">
  <metadata
     id="metadata7">
    <rdf:RDF>
      <cc:Work
         rdf:about="">
        <dc:format>image/svg+xml</dc:format>
        <dc:type
           rdf:resource="http://purl.org/dc/dcmitype/StillImage" />
        <dc:title></dc:title>
      </cc:Work>
    </rdf:RDF>
  </metadata>
  <g
     id="layer7"
     style="display:inline">
    <path
       d="m 931.6698,254.88531 c -1.27394,-3.62577 -5.12711,-8.11883 -10.5448,-8.63531 -14.13214,0.58732 -17.28508,-7.95356 -14.21875,-21.125 12.30669,-28.97467 -17.24951,-53.6674 -51.21875,-63.28125 -14.35107,-4.06159 -42.32237,-8.89874 -64.48168,9.14978 -1.94687,-9.40927 -10.02355,-8.09138 -16.20582,-10.0887 1.55943,-10.69439 7.76383,-15.58257 13.7931,-20.68966 16.15022,-5.56698 32.93218,-45.631494 39.87073,-64.753154 6.60274,-18.196207 8.80892,-34.013719 12.71548,-50.764085 21.31961,1.071187 69.90584,6.594285 105.46388,27.945797 35.55804,21.351512 84.38101,84.393512 69.53611,134.985242 -7.9023,5.67696 -15.8046,13.86416 -23.70689,24.13793 -5.7262,9.92426 -16.73582,17.20679 -29.31034,23.70689 -9.87807,3.72643 -20.67507,11.12856 -31.69227,19.41152 z"
       id="path5175"
       style="fill:none;stroke:#000000;stroke-width:1px;stroke-linecap:butt;stroke-linejoin:miter;stroke-opacity:1;display:inline">
      <title
         id="title5196">left parietal bone</title>
    </path>
    <path
       d="m 773.27586,236.33586 c 33.93128,8.41782 63.59296,6.58861 91.81035,1.29311 l 0,0 m -73.88039,-66.63544 c -4.92504,4.01139 -8.30368,7.96775 -14.04957,17.50647 -7.65956,12.5 -13.00078,27.58621 -8.625,37.5 l 4.75,10.34375 -8.1875,-1.3125 c -3.88272,3.79174 -0.66701,10.45712 0.84375,16.40625 15.64357,-4.45457 22.61151,-1.19578 28.03125,3.4375 13.6583,11.94601 18.13319,2.44247 25.4375,-0.4375 3.2729,-8.86355 20.28205,-2.17724 16.8125,6.90625 3.02804,10.66785 6.57262,15.91933 10.75,15.09375 -0.0145,6.46552 0.86162,12.90948 -1.28125,19.375 -1.24948,5.56855 2.4871,7.15385 6.90625,8.1875 24.71629,1.02036 48.79366,-0.51179 68.96875,-17.65625 5.40917,-4.43703 8.9469,-10.38436 8.625,-19.40625 1.45095,-5.66795 2.75624,-8.42642 1.4823,-12.05219 -1.27394,-3.62577 -5.12711,-8.11883 -10.5448,-8.63531 -14.13214,0.58732 -17.28508,-7.95356 -14.21875,-21.125 12.30669,-28.97467 -17.24951,-53.6674 -51.21875,-63.28125 -14.35107,-4.06159 -42.32237,-8.89874 -64.48168,9.14978 z m 55.51293,85.16272 c 3.98591,0 7.22735,4.22573 7.3125,9.5 l 0,0.21875 c 0,5.35621 -3.26559,9.6875 -7.3125,9.6875 -4.04691,0 -7.34375,-4.33129 -7.34375,-9.6875 0,-5.35621 3.29684,-9.71875 7.34375,-9.71875 z"
       id="path5173"
       style="fill:none;stroke:#000000;stroke-width:1px;stroke-linecap:butt;stroke-linejoin:miter;stroke-opacity:1">
      <title
         id="title5185">left zygomatic bone</title>
    </path>
  </g>
  <g
     id="layer8"
     style="display:inline">
    <path
       d="m 328.69051,254.88531 c 1.27394,-3.62577 5.12711,-8.11883 10.5448,-8.63531 14.13214,0.58732 17.28508,-7.95356 14.21875,-21.125 -12.30669,-28.97467 17.24951,-53.6674 51.21875,-63.28125 14.35107,-4.06159 42.32237,-8.89874 64.48168,9.14978 1.94687,-9.40927 10.02351,-8.09138 16.20581,-10.0887 -1.5594,-10.69439 -7.76382,-15.58257 -13.79309,-20.68966 C 455.41699,134.64819 438.63503,94.583676 431.69648,75.462016 425.09374,57.265809 422.88756,41.448297 418.981,24.697931 397.66139,25.769118 349.07516,31.292216 313.51712,52.643728 277.95908,73.99524 229.13611,137.03724 243.98101,187.62897 c 7.9023,5.67696 15.8046,13.86416 23.70689,24.13793 5.7262,9.92426 16.73582,17.20679 29.31034,23.70689 9.87807,3.72643 20.67507,11.12856 31.69227,19.41152 z"
       id="path5187"
       style="fill:none;stroke:#000000;stroke-width:1px;stroke-linecap:butt;stroke-linejoin:miter;stroke-opacity:1;display:inline">
      <title
         id="title5198">right parietal bone</title>
    </path>
    <path
       d="m 487.0845,236.33586 c -33.93133,8.41782 -63.59301,6.58861 -91.8104,1.29311 l 0,0 m 73.88039,-66.63544 c 4.92504,4.01139 8.30368,7.96775 14.04961,17.50647 7.6595,12.5 13.0007,27.58621 8.625,37.5 l -4.75,10.34375 8.1875,-1.3125 c 3.8827,3.79174 0.667,10.45712 -0.8438,16.40625 -15.6436,-4.45457 -22.6115,-1.19578 -28.03124,3.4375 -13.6583,11.94601 -18.13319,2.44247 -25.4375,-0.4375 -3.2729,-8.86355 -20.28205,-2.17724 -16.8125,6.90625 -3.02804,10.66785 -6.57262,15.91933 -10.75,15.09375 0.0145,6.46552 -0.86162,12.90948 1.28125,19.375 1.24948,5.56855 -2.4871,7.15385 -6.90625,8.1875 -24.71629,1.02036 -48.79366,-0.51179 -68.96875,-17.65625 -5.40917,-4.43703 -8.9469,-10.38436 -8.625,-19.40625 -1.45095,-5.66795 -2.75624,-8.42642 -1.4823,-12.05219 1.27394,-3.62577 5.12711,-8.11883 10.5448,-8.63531 14.13214,0.58732 17.28508,-7.95356 14.21875,-21.125 -12.30669,-28.97467 17.24951,-53.6674 51.21875,-63.28125 14.35107,-4.06159 42.32237,-8.89874 64.48168,9.14978 z m -55.51293,85.16272 c -3.98591,0 -7.22735,4.22573 -7.3125,9.5 l 0,0.21875 c 0,5.35621 3.26559,9.6875 7.3125,9.6875 4.04691,0 7.34375,-4.33129 7.34375,-9.6875 0,-5.35621 -3.29684,-9.71875 -7.34375,-9.71875 z"
       id="path5189"
       style="fill:none;stroke:#000000;stroke-width:1px;stroke-linecap:butt;stroke-linejoin:miter;stroke-opacity:1;display:inline">
      <title
         id="title5191">left zygomatic bone</title>
    </path>
  </g>
  <g
     id="layer6"
     style="display:inline">
    <path
       d="m 189.25152,362.5695 c 4.9398,4.47362 4.15757,4.56904 5.51288,10.32079 l 1.57068,12.56545 c 10.99476,-9.51659 21.98953,-11.93515 32.98429,-0.52356 l 0,-11.51833 c 1.28617,-7.42074 2.79755,-9.75222 5.84949,-10.10989 l -1.13745,-25.4922 -44.50261,-0.52356 z"
       id="path4155"
       style="fill:none;stroke:#000000;stroke-width:1px;stroke-linecap:butt;stroke-linejoin:miter;stroke-opacity:1">
      <title
         id="title4212">basioccipital</title>
    </path>
    <path
       d="m 202.06897,484.09449 c 0.0919,-7.60772 4.38145,-9.95669 8.96551,-10.34484 7.85384,0.29205 9.33612,4.91633 8.96552,10.68966 l -0.34483,0 m 40.77523,-95.05687 c 0.7152,11.98467 -12.79153,16.07054 -22.2105,13.35079 0.59469,0.19823 13.331,34.60072 -27.7487,36.64921 -14.89673,1.0316 -31.10055,-14.5447 -24.08377,-37.17277 -9.7237,0.59227 -18.35014,3.14584 -22.51308,-13.61257 -30.21064,18.8974 -48.81064,30.54161 -60.20943,94.7644 -7.409442,63.76995 8.38512,90.34299 21.98953,106.28272 33.07882,34.93304 130.76624,44.53094 164.92147,-1.57068 22.47906,-34.71185 27.62601,-41.30504 28.27225,-97.3822 -6.18791,-55.17273 -27.11652,-86.59655 -58.41777,-101.3089 z"
       id="path4164"
       style="fill:none;stroke:#000000;stroke-width:1px;stroke-linecap:butt;stroke-linejoin:miter;stroke-opacity:1">
      <title
         id="title4204">occipital bone</title>
    </path>
    <path
       d="m 279.65517,284.43931 c -7.03336,-1.99558 -7.83909,-0.75765 -13.10345,6.2069 -7.6637,13.62174 -15.23611,27.80643 -28.27586,8.27586 -6.91146,-9.2345 -16.16052,-13.77371 -17.5862,4.82758 l 0,33.7931 -17.20347,-0.39356 -0.34483,-33.8924 c -0.85161,-16.25924 -9.31078,-14.91193 -16.75393,-4.71205 -7.32869,13.81016 -15.35892,13.58948 -24.08377,-0.52356 -3.22642,-6.63339 -6.12187,-15.52151 -16.86947,-14.65968 l 0.083,-22.37047 c -0.24443,-2.13315 0.78147,-4.47504 -1.37931,-5.86206 -3.03808,-5.94591 1.82141,-9.87598 6.2069,-12.4138 6.75884,-3.27114 12.87356,-4.08503 19.31034,-3.44827 l -8.62064,23.10344 c 0.81486,15.65943 15.17245,12.06876 17.24138,4.82759 -3.31917,5.22083 -1.88194,12.2253 -2.06896,18.62069 l 12.41379,-7.93103 46.89655,-0.34483 13.10345,7.24138 c 0.49787,-7.9236 0.47981,-13.07685 -2.75862,-17.58621 2.84338,12.25417 22.78723,5.20202 17.5862,-3.7931 -1.90435,-8.38353 -5.05393,-16.14444 -7.73168,-24.14127 l 7.8905,-0.32206 c 7.5332,1.06201 11.94591,4.07433 16.10305,7.24638 1.48262,1.795 3.74602,2.88731 1.12722,8.37359 -1.18608,2.05934 -1.02721,3.67037 -0.96618,5.31401 z"
       id="path4198"
       style="fill:none;stroke:#000000;stroke-width:1px;stroke-linecap:butt;stroke-linejoin:miter;stroke-opacity:1">
      <title
         id="title4226">various bones of the skull base</title>
    </path>
    <path
       d="m 203.14136,325.76988 c 1.66774,15.49318 -7.53246,10.11858 -22.51309,12.56544 -5.33212,8.25816 -12.22667,15.4003 -27.22513,16.75393 -14.10048,2.31423 -12.28881,-18.35575 -14.65968,-32.9843 -24.24704,-6.8778 -21.11446,-16.34034 -6.80629,-21.98953 6.60662,-5.96205 9.22468,-16.9161 17.97978,-16.40909 8.6545,1.75455 8.62568,9.29799 12.38671,14.31485 8.72485,14.11304 16.75508,14.33372 24.08377,0.52356 7.44315,-10.19988 15.90232,-11.54719 16.75393,4.71205 z"
       id="path4158"
       style="fill:none;stroke:#000000;stroke-width:1px;stroke-linecap:butt;stroke-linejoin:miter;stroke-opacity:1">
      <title
         id="title4224">right zygomatic bone</title>
    </path>
    <path
       d="m 220.68966,303.74965 0,25.86207 c -0.83113,8.22787 4.53996,8.48147 10,8.62069 l 11.72413,10e-6 c 4.11019,3.32319 5.2597,5.01584 9.31035,8.62068 6.84712,6.04195 9.46292,8.73255 18.27586,7.93104 14.48808,-0.47019 13.98836,-5.8083 14.48276,-15.86207 l 1.03448,-17.58621 c 7.63111,-4.76838 27.96383,-4.83247 13.10345,-17.93103 -4.40681,-3.33536 -9.15775,-7.70315 -14.48276,-13.79311 -6.34667,-8.8625 -12.15851,-7.56344 -17.58621,1.03449 -7.6637,13.62174 -15.23611,27.80643 -28.27586,8.27586 -6.91146,-9.2345 -16.16052,-13.77371 -17.5862,4.82758 z"
       id="path4160"
       style="fill:none;stroke:#000000;stroke-width:1px;stroke-linecap:butt;stroke-linejoin:miter;stroke-opacity:1">
      <title
         id="title4222">left zygomatic bone</title>
    </path>
    <path
       d="m 178.27586,267.19793 c 3.75335,-28.33926 14.07192,-45.09283 33.44828,-45.86207 21.54184,2.22124 31.89511,18.8278 34.13793,45.86207 4.70838,7.37761 2.12629,11.83902 2.75862,17.58621 l -13.10345,-7.24138 -46.89655,0.34483 -12.41379,7.93103 c 0.66018,-6.19216 -2.02348,-10.7124 2.06896,-18.62069 z m 0,0 c 3.75335,-28.33926 14.07192,-45.09283 33.44828,-45.86207 21.54184,2.22124 31.89511,18.8278 34.13793,45.86207 4.70838,7.37761 2.12629,11.83902 2.75862,17.58621 l -13.10345,-7.24138 -46.89655,0.34483 -12.41379,7.93103 c 0.66018,-6.19216 -2.02348,-10.7124 2.06896,-18.62069 z m 0,-0.34483 67.24138,0 m -57.58621,-31.37931 47.93104,-0.34482 m -23.44828,-13.79311 0,56.2069 m 36.2069,7.58621 10.34483,0 -0.34483,0 m -82.41379,0.34482 -11.37931,0 0,0"
       id="path4168"
       style="fill:none;stroke:#000000;stroke-width:1px;stroke-linecap:butt;stroke-linejoin:miter;stroke-opacity:1">
      <title
         id="title4265">maxilla</title>
    </path>
    <path
       d="m 145.51724,351.33586 c -2.07755,-4.32138 -6.11216,-9.07331 -0.34483,-13.44827 9.86433,-3.27115 18.15824,-1.83103 26.2069,0.34482 6.01922,2.73517 2.64656,6.79634 -0.34483,9.65518 -10.45503,6.60741 -19.63851,9.65449 -25.51724,3.44827 z"
       id="path4180"
       style="fill:none;stroke:#000000;stroke-width:1px;stroke-linecap:butt;stroke-linejoin:miter;stroke-opacity:1">
      <title
         id="title4218">right temporo-mandibular fossa</title>
    </path>
    <path
       d="m 282.4138,338.92207 c 1.832,4.13794 0.55145,8.62069 -0.68966,10.34483 -1.83939,3.72052 -13.97814,9.44559 -28.27587,-2.06898 -2.73575,-3.22402 -2.42491,-5.59572 0.68966,-8.62068 9.69973,-4.18294 23.86743,-5.26925 28.27587,0.34483 z"
       id="path4182"
       style="fill:none;stroke:#000000;stroke-width:1px;stroke-linecap:butt;stroke-linejoin:miter;stroke-opacity:1">
      <title
         id="title4220">left temporo-mandibular fossa</title>
    </path>
    <path
       d="m 178.27586,267.19793 c 3.75335,-28.33926 14.07192,-45.09283 33.44828,-45.86207 21.54184,2.22124 31.89511,18.8278 34.13793,45.86207 3.4875,12.25417 22.78723,5.20202 17.5862,-3.7931 -5.20261,-24.23449 -21.69126,-57.38206 -44.13793,-57.93104 -4.92098,0.25144 -9.71308,0.63175 -15.51724,0 -15.34565,1.0594 -32.96741,23.96284 -42.75862,56.89655 0.81486,15.65943 15.17245,12.06876 17.24138,4.82759 z"
       id="path4166"
       style="fill:none;stroke:#000000;stroke-width:1px;stroke-linecap:butt;stroke-linejoin:miter;stroke-opacity:1">
      <title
         id="title4216">maxillar teeth</title>
    </path>
    <path
       d="m 185.86387,403.78035 c -3.49107,23.50279 6.14056,34.22743 24.60733,35.60209 37.86275,-3.12081 29.47583,-24.89185 27.7487,-36.64921 -1.59731,-8.08117 -6.05141,-12.9754 -8.90053,-17.80105 -10.99476,-11.41159 -21.98953,-8.99303 -32.98429,0.52356 -3.83944,3.87167 -5.58465,6.60369 -10.47121,18.32461 z"
       id="path3367"
       style="fill:none;stroke:#000000;stroke-width:1px;stroke-linecap:butt;stroke-linejoin:miter;stroke-opacity:1">
      <title
         id="title4206">foramen magnum</title>
    </path>
    <path
       d="m 196.33508,385.45574 c -3.83944,3.87167 -5.06109,5.03301 -9.94765,16.75393 -10.4587,0.95977 -20.81097,1.49668 -23.03664,-16.23037 -0.57307,-7.05507 5.22634,-12.14304 9.94764,-16.23037 7.20681,-7.64166 19.80247,-12.55062 21.46597,3.14136 z"
       id="path4141"
       style="fill:none;stroke:#000000;stroke-width:1px;stroke-linecap:butt;stroke-linejoin:miter;stroke-opacity:1">
      <title
         id="title4208">right occipital condyle</title>
    </path>
    <path
       d="m 238.2199,402.73323 c -1.59731,-8.08117 -6.05141,-12.9754 -8.90053,-17.80105 l 0,-11.51833 c 2.57235,-14.84148 10.23397,-9.32591 16.75393,-8.37696 3.21322,2.48434 6.4195,4.94786 10.99476,11.51833 3.90655,7.15532 6.28133,14.31064 0.52356,21.46596 -4.73292,5.88148 -11.8847,5.71581 -19.37172,4.71205 z"
       id="path3369"
       style="fill:none;stroke:#000000;stroke-width:1px;stroke-linecap:butt;stroke-linejoin:miter;stroke-opacity:1">
      <title
         id="title4210">left occipital condyle</title>
    </path>
  </g>
</svg>
