<?xml version="1.0" encoding="UTF-8" standalone="no"?>
               
                <svg
                   xmlns:dc="http://purl.org/dc/elements/1.1/"
                   xmlns:cc="http://creativecommons.org/ns#"
                   xmlns:rdf="http://www.w3.org/1999/02/22-rdf-syntax-ns#"
                   xmlns:svg="http://www.w3.org/2000/svg"
                   xmlns="http://www.w3.org/2000/svg"
                   xmlns:xlink="http://www.w3.org/1999/xlink"
                   version="1.1"
                   width="500"
                   height="500"
                   id="svg2">
                  <metadata
                     id="metadata7">
                    <rdf:RDF>
                      <cc:Work
                         rdf:about="">
                        <dc:format>image/svg+xml</dc:format>
                        <dc:type
                           rdf:resource="http://purl.org/dc/dcmitype/StillImage" />
                        <dc:title></dc:title>
                      </cc:Work>
                    </rdf:RDF>
                  </metadata>

                  <g
                     id="layer5"
                     style="display:inline" transform="translate(-360, -130)">
                    <path 
                       d="m 639.40202,288.55485 c -4.56944,6.04104 -2.899,14.16337 -3.13106,21.21207 0.005,1.78478 -0.4908,2.64817 -0.0759,5.81219 6.35178,12.8178 7.13877,23.93117 8.75122,36.47236 0.73739,5.33394 0.41083,11.71159 -5.38045,14.12778 -4.60052,2.53062 -10.06868,2.02721 -14.99049,3.21054 -2.15809,2.00253 -0.92331,5.35319 -1.18446,8.00088 0.16978,5.26469 -0.0138,10.55478 0.3443,15.79696 0.66509,6.02804 2.09767,6.10547 7.92662,6.03922 13.93806,0.0597 28.45949,-1.92924 40.38125,-3.30441 6.23121,-1.86629 4.0692,-8.96632 5.74124,-13.72221 1.21617,-6.30668 5.02089,-12.9829 11.87579,-14.17412 4.50883,-1.6508 9.71547,0.95289 13.80032,-1.10167 2.35995,-1.87282 6.89654,-2.72083 5.71782,-6.52462 -0.0486,-1.99425 -0.0973,-3.98851 -0.14592,-5.98276 -4.96283,-7.64007 -12.33883,-13.32493 -20,-18.06451 -0.14337,-2.00717 -0.28674,-4.01434 -0.43011,-6.02151 -10.70655,0.66253 -21.65715,-2.29085 -30.70786,-8.00292 -8.15839,-5.0572 -12.96456,-14.67492 -12.04189,-24.23527 0.0859,-3.17933 0.1718,-6.35867 0.2577,-9.538 m -6.70808,0 c 2.23603,0 4.47205,0 6.70808,0"
                       id="path4946"
                       style="fill:white;  stroke-linecap:butt;stroke-linejoin:miter;stroke-opacity:1">
                      <title
                         id="title5205">left side of maxilla</title>
                    </path>
                    <path
                       d="m 613.48444,288.24993 c -0.41879,6.04717 -0.13952,16.74808 -1.26853,18.06046 -0.0746,1.66628 -0.34928,3.39926 0.28409,4.82955 0.42519,1.23106 0.64298,2.46212 0.56818,3.69318 -5.18629,8.17282 -10.4169,16.3161 -13.9284,25.60545 -2.10927,6.30064 -3.98449,12.65979 0.64517,20.64516 0,0 2.89827,4.54759 5.16129,5.80645 3.62395,2.01591 7.52082,2.70755 12.259,2.11875 4.40641,0.25561 2.5346,1.52471 3.12313,4.18184 0,0 0.33907,10.21882 0,15.47357 -0.38132,5.90961 2.99176,11.86905 -11.76148,11.02441 0,0 -18.43566,0.31703 -39.10452,-2.47599 -1.74374,-0.59855 -3.18541,-1.80119 -3.22581,-5.80645 l 0.43011,-12.47312 c -0.17331,-2.35062 -0.57824,-4.58543 -3.01076,-5.80645 -3.36279,-1.54108 -4.6713,-5.55691 -14.19354,-0.43011 -8.08465,0.0721 -9.30142,0.024 -13.76345,-3.2258 2.60447,-11.28709 9.85196,-27.46625 20.21506,-29.89248 l 1.29032,-7.09677 11.1828,0 c 16.12545,-0.25867 22.24075,-6.48267 28.38709,-12.68817 11.9079,-10.24027 11.30126,-21.04938 10.91691,-31.84839 l 5.79334,0.30491"
                       id="path4957"
                       style="fill:none; stroke:#000000;stroke-width:1px;stroke-linecap:butt;stroke-linejoin:miter;stroke-opacity:1">
                      <title
                         id="title5203">right side of maxilla</title>
                    </path>
                    <path
                       d="m 626.45403,278.89748 -0.75047,28.33021 0,0 c -2.97306,0.2829 -5.87246,0.43187 -12.63538,7.60543 0.0748,-1.23106 -0.14299,-2.46212 -0.56818,-3.69318 -0.63337,-1.43029 -0.35868,-3.16327 -0.28409,-4.82955 1.12901,-1.31238 0.84974,-12.01329 1.26853,-18.06046 5.09969,-6.41759 9.2816,-8.93459 12.96959,-9.35245 z"
                       id="path4940"
                       style="fill:none;stroke:#000000;stroke-width:1px;stroke-linecap:butt;stroke-linejoin:miter;stroke-opacity:1">
                      <title
                         id="title5209">right nasal bone</title>
                    </path>
                    <path
                       d="m 757.37931,330.64621 c 29.92468,7.21993 20.54842,-21.28827 28.01724,-34.48276 6.05355,2.974 9.50611,2.04653 13.36207,1.72414 2.60471,2.86922 5.00078,7.40756 5.60345,26.2931 3.78616,12.39253 8.34962,14.2916 12.93103,15.94828 5.23281,1.08458 10.86252,2.28255 13.36207,2.5862 -4.54841,5.88095 0.42986,9.85656 1.29311,14.65517 -7.98383,4.23901 -19.48793,5.39778 -30.60345,6.89656 l -36.63793,3.01724 c 4.36149,-6.53201 2.81761,-13.32077 -2.15518,-20.25862 -1.8947,-5.41239 -9.86125,-9.13816 -5.17241,-16.37931 z"
                       id="path4951"
                       style="fill:none;stroke:#000000;stroke-width:1px;stroke-linecap:butt;stroke-linejoin:miter;stroke-opacity:1">
                      <title
                         id="title5211">left zygomatic bone</title>
                    </path>
                    <path
                       d="m 471.96413,349.66461 c -29.92468,7.21993 -20.54842,-21.28827 -28.01724,-34.48276 -6.05355,2.974 -9.50611,2.04653 -13.36207,1.72414 -2.60471,2.86922 -5.00078,7.40756 -5.60345,26.2931 -3.78616,12.39253 -8.34962,14.2916 -12.93103,15.94828 -5.23281,1.08458 -10.86252,2.28255 -13.36207,2.5862 4.54841,5.88095 -0.42986,9.85656 -1.29311,14.65517 7.98383,4.23901 19.48793,5.39778 30.60345,6.89656 l 36.63793,3.01724 c -4.36149,-6.53201 -2.81761,-13.32077 2.15518,-20.25862 1.8947,-5.41239 9.86125,-9.13816 5.17241,-16.37931 z"
                       id="path4953"
                       style="fill:none;stroke:#000000;stroke-width:1px;stroke-linecap:butt;stroke-linejoin:miter;stroke-opacity:1">
                      <title
                         id="title5213">right zygomatic bone</title>
                    </path>
                    <path
                       d="m 636.07955,315.11721 c 0.83856,-9.11426 -1.65568,-20.89688 3.32247,-26.56236 -3.57646,-5.19123 -7.28802,-10.02217 -12.94799,-9.65737 l -0.75047,28.33021 0,0 c 5.43585,0.65266 7.64028,4.53673 10.37599,7.88952 z"
                       id="path4996"
                       style="fill:none;stroke:#000000;stroke-width:1px;stroke-linecap:butt;stroke-linejoin:miter;stroke-opacity:1">
                      <title
                         id="title5207">left nasal bone</title>
                    </path>
                    <path
                       d="m 534.51204,238.85407 c 6.83866,16.53058 3.41672,32.67223 -2.69155,42.72934 -2.25634,3.61832 -2.49652,5.2345 -4.01653,10.32548 l 10.97686,0 c 8.59715,-14.71623 18.06003,-17.31216 27.44214,-21.03898 16.50636,-4.31098 33.62753,-10.91353 41.46814,17.07511 l 5.79334,0.30491 c 10.90188,-13.927 19.06961,-10.90232 25.91758,0.30492 l 6.70808,0 c 6.42242,-23.46921 23.25522,-22.39966 40.85831,-19.51442 10.12765,2.66092 21.60756,4.57179 25.91758,17.98985 l 8.84247,0 c 2.2165,-3.08117 -1.10257,-4.82852 -2.49197,-10.07323 -5.8558,-19.67851 4.41894,-36.07437 7.06566,-38.71281 l 0,0 m 8.53756,25.91759 -3.96387,-5.48843 c 2.2062,-6.39102 5.23624,-10.31051 8.23265,-14.3309 8.88547,-73.42729 -50.46678,-106.94071 -92.3932,-110.57839 -37.09564,-3.21853 -125.67469,11.86442 -123.78994,123.68964 0.70308,3.84389 1.04233,7.62714 -3.04912,10.67194 0.75606,3.36147 3.89419,7.52646 2.43926,10.51944 0.79079,0.51292 2.28431,1.66294 4.26871,1.06721 2.22312,0.0129 2.96026,0.29229 4.60013,1.69783 -1.62018,3.79156 -1.86036,5.40774 -3.38037,10.49872 l 10.97686,0 c 8.59715,-14.71623 18.06003,-17.31216 27.44214,-21.03898 16.50636,-4.31098 33.62753,-10.91353 41.46814,17.07511 l 5.79334,0.30491 c 10.90188,-13.927 19.06961,-10.90232 25.91758,0.30492 l 6.70808,0 c 6.42242,-23.46921 23.25522,-22.39966 40.85831,-19.51442 10.12765,2.66092 21.60756,4.57179 25.91758,17.98985 l 8.84247,0 c 2.2165,-3.08117 -1.10257,-4.82852 -2.16073,-10.06768 9.17853,-2.05348 11.91227,-7.60597 15.27198,-12.80077 z"
                       id="path5000"
                       style="fill:none;stroke:#000000;stroke-width:1px;stroke-linecap:butt;stroke-linejoin:miter;stroke-opacity:1">
                      <title
                         id="title5201">frontal bone</title>
                    </path>
                    <path
                       d="m 515.42553,508.09448 c 0.87891,13.68217 11.81118,21.61956 22.34043,29.78724 77.76801,42.81033 124.94858,21.786 170.74468,-2.12766 19.61968,-12.76596 20.58239,-25.53192 20.74468,-38.29788 2.75217,-12.60785 1.2566,-28.40152 9.04255,-37.23404 4.10814,-4.22863 6.85305,-1.64115 9.57447,1.06383 l 2.65957,20.21277 c 3.05721,12.55631 10.0655,15.63005 20.21277,11.17021 2.62711,-2.7295 3.7475,-5.96123 2.12766,-10.10638 -2.19736,-3.00025 -5.64545,-5.75035 -1.06383,-10.10639 10.26847,-8.62706 15.33536,-6.55419 22.87234,-4.25531 3.61635,2.80175 7.7297,8.01458 8.51064,12.23404 -0.96883,4.62261 -3.52343,6.07371 -5.85106,7.97872 -6.02837,-0.70922 -11.34752,3.5461 -15.95745,12.76596 -4.83013,13.82979 -8.11259,27.65957 -10.10638,41.48936 1.5146,17.10342 -3.26389,31.4099 -27.12766,37.23404 -21.17946,1.92175 -30.13554,5.20165 -38.82979,8.51064 -23.96466,10.78712 -70.20521,35.58294 -77.12766,27.12766 -4.13106,-3.54613 -8.23078,-5.6304 -14.89362,-1.06383 -6.22709,8.11551 -50.60717,-14.06789 -74.46808,-24.46808 -10.6383,-6.73921 -21.2766,-8.84784 -31.9149,-8.51064 -15.36991,0.81153 -28.53002,-4.37495 -34.04255,-30.31915 -2.26746,-15.99495 -5.35749,-31.16733 -9.04255,-45.74468 -2.09076,-6.41885 -4.17596,-12.83929 -15.95745,-16.48936 -6.42561,-0.64819 -8.09359,-4.15095 -7.44681,-9.04256 -0.59407,-5.204 2.159,-7.06086 4.25532,-9.57447 10.35992,-5.49729 18.51944,-3.29321 26.06383,1.06383 6.22859,5.44499 4.03774,9.07924 1.59575,10.6383 -5.99844,3.61456 -3.12675,5.62545 -1.06383,9.04256 7.6337,5.87315 16.6057,3.55696 19.14893,-2.12766 2.93091,-6.42918 3.84178,-16.01638 4.78724,-25 0.50638,-6.44256 5.34481,-7.74154 10.10638,-4.25532 6.81194,8.51064 5.00508,17.02127 6.38298,25.53191 0.37572,8.06697 1.81557,16.1847 3.7234,22.87234 z"
                       id="path5006"
                       style="fill:none;stroke:#000000;stroke-width:1px;stroke-linecap:butt;stroke-linejoin:miter;stroke-opacity:1">
                      <title
                         id="title5215">mandibula</title>
                    </path>
                    <path
                       d="m 634.57447,530.43491 c 5.9632,0.28288 11.43154,1.14311 9.04255,11.17021 -6.19143,17.20641 -13.6932,16.31457 -21.27659,16.48936 -8.04038,-1.34895 -12.29081,7.64167 -21.80852,-13.82978 -1.32152,-7.2049 -0.23678,-12.80562 6.9149,-14.36171 z"
                       id="path5008"
                       style="fill:none;stroke:#000000;stroke-width:1px;stroke-linecap:butt;stroke-linejoin:miter;stroke-opacity:1">
                      <title
                         id="title5217">hyoid body</title>
                    </path>
                    <path
                       d="m 656.91489,528.83916 c 15.94117,-6.58205 20.77071,-14.88409 23.40426,-23.40425 2.02477,-6.55061 7.59814,-6.51941 9.04255,-10e-6 0.97429,4.3975 -1.9972,7.81362 -4.25532,10.63831 -6.0197,7.53006 -12.85968,15.2258 -19.14893,23.93617 -2.93177,4.06039 -5.39026,6.54928 -8.51064,6.91489 -4.2719,0.50053 -6.80099,-2.2796 -5.85107,-8.51064 0.63818,-4.1862 1.03221,-7.80441 5.31915,-9.57447 z"
                       id="path5010"
                       style="fill:none;stroke:#000000;stroke-width:1px;stroke-linecap:butt;stroke-linejoin:miter;stroke-opacity:1">
                      <title
                         id="title5221">left greater horn of the hyoid</title>
                    </path>
                    <path
                       d="m 557.44681,514.47746 20.21276,25 c 13.11456,13.52427 13.69984,6.16639 14.36171,-1.06383 0.63664,-3.88861 0.30661,-7.61611 -7.44681,-10.10638 -5.67536,-2.13406 -11.73614,-5.80982 -20.21277,-19.14894 -3.19149,-12.03367 -6.38298,-10.00393 -9.57447,-3.7234 -0.35072,3.6328 0.18276,6.82351 2.65958,9.04255 z"
                       id="path5012"
                       style="fill:none;stroke:#000000;stroke-width:1px;stroke-linecap:butt;stroke-linejoin:miter;stroke-opacity:1">
                      <title
                         id="title5219">right greater horn of the hyoid</title>
                    </path>
                    <path
                       d="m 497.92251,391.31044 c -5.35548,-0.98853 -4.05648,1.89938 -3.96387,3.65895 l 0.30492,5.79334 c 0.24007,4.56118 2.39373,4.97064 4.8786,4.87861 l 8.23264,-0.30491 c 4.15432,-0.15386 7.05148,-2.13141 6.70808,-4.87861 l -0.60982,-4.8786 c -0.27195,-2.17565 -0.40499,-5.37993 -4.87861,-3.96387 -2.67162,0.84566 -6.12299,0.53475 -10.67194,-0.30491 z m 10.67194,0.30491 c -2.67162,0.84566 -6.12299,0.53475 -10.67194,-0.30491 -3.65722,-0.27398 -3.91137,-3.59174 -3.96387,-4.57369 l -0.60982,-11.8916 c -0.79979,-3.21911 3.8212,-4.9193 3.65895,0 l 0.30491,5.18352 c 1.49642,5.5308 6.50323,5.06137 9.14739,-0.30491 l 2.74421,-7.013 c 1.01459,-3.68045 4.00086,-4.75824 3.96387,0 l -0.60983,13.41616 c 0.59436,2.3249 -0.094,5.10572 -3.96387,5.48843 z M 497.88993,381.1757 c 0.81888,2.77488 4.96864,4.50151 8.17017,-0.81702 0.18593,-1.77491 0.0854,-3.8363 -0.1634,-6.04592 -0.81209,-4.15898 -2.02854,-2.25253 -3.26807,0 -1.41745,2.69293 -2.51268,6.19142 -4.7387,6.86294 z"
                       id="path5014"
                       style="fill:none;stroke:#000000;stroke-width:1px;stroke-linecap:butt;stroke-linejoin:miter;stroke-opacity:1">
                      <title
                         id="title5248">right third maxillary molar</title>
                    </path>
                    <path
                       d="m 542.33564,397.84283 -0.1634,5.22891 c -0.64321,3.83172 -2.4015,6.97723 -8.66038,7.35315 l -12.41865,-0.1634 c -2.43845,-1.00786 -5.08647,-0.6535 -6.69954,-7.02635 l 0.49021,-5.88251 c 0.4795,-3.52056 3.15641,-3.0126 5.71912,-2.28765 3.19339,0.53874 6.00265,1.15773 16.66714,0.81701 5.34323,-1.78287 4.71199,0.41723 5.0655,1.96084 z m -25.65432,-8.33357 c -0.32482,-4.5733 -0.38031,-8.87728 0.1634,-12.58205 0.49021,-4.84601 4.5753,-5.44814 4.9021,-0.1634 0.23181,2.4464 0.16231,4.99324 1.63403,7.02634 1.63739,3.42563 9.0281,8.24603 12.74546,0.81702 l 1.79744,-6.37273 c 1.40028,-4.81823 3.44414,-3.39977 3.43147,0.1634 l 0,12.25525 c -0.33478,4.65283 -3.57131,5.31578 -7.35315,5.2289 l -11.76504,-0.3268 c -2.02448,-1.20997 -4.71575,0.69178 -5.55571,-6.04593 z m 8.66037,-3.75827 c 2.51581,-1.73782 3.07425,-4.45433 3.92168,-7.02634 0.10893,-3.2916 1.85191,-4.57022 2.77786,-0.49021 l 2.61445,8.33357 c -2.08587,2.98779 -5.05126,3.16113 -9.31399,-0.81702 z"
                       id="path5026"
                       style="fill:none;stroke:#000000;stroke-width:1px;stroke-linecap:butt;stroke-linejoin:miter;stroke-opacity:1">
                      <title
                         id="title5251">right second maxillary molar</title>
                    </path>
                    <path
                       d="m 502.95544,433.30136 0.3268,-10.45782 c 0.5001,-6.01137 2.17385,-4.6874 4.41189,0.16341 l 2.94126,5.71911 c 3.97583,4.68398 6.43743,0.83621 7.67996,-2.45105 l 2.77786,-6.37273 c 1.19829,-3.48595 2.39658,-3.48593 3.59487,0 1.08059,4.62976 0.81286,9.25953 0.1634,13.88929 -0.25658,2.5268 -0.8242,4.787 -4.08508,4.73869 -4.83966,0.45168 -9.92123,0.41956 -15.19651,0 -1.66898,-0.7461 -2.68589,-2.30727 -2.61445,-5.2289 z m -2.94126,9.15058 c -0.28373,3.32254 -0.14151,6.64507 0,9.96761 -0.29713,2.44241 1.55432,3.27338 4.73869,3.10466 9.16097,-1.89306 12.35777,-1.00284 16.01353,-0.32681 2.97354,0.32908 4.91096,-0.50748 4.41189,-4.08508 l -0.1634,-9.6408 c 0.0117,-2.70979 -1.81976,-3.26925 -4.41189,-2.94126 -4.64141,0.83655 -7.56421,0.96682 -12.63733,0.50824 -2.71904,-0.26365 -7.75749,-1.37301 -7.95149,3.41344 z m 10.94802,-13.39907 0.1634,-7.35315 c -0.42232,-3.3332 1.69393,-4.63117 3.10467,-0.1634 1.77788,2.81066 3.01408,4.26712 3.92168,4.9021 -1.11865,3.69184 -3.62946,6.50525 -7.18975,2.61445 z"
                       id="path5040"
                       style="fill:none;stroke:#000000;stroke-width:1px;stroke-linecap:butt;stroke-linejoin:miter;stroke-opacity:1">
                      <title
                         id="title5324">right first maxillary molar</title>
                    </path>
                    <path
                       d="m 527.62934,442.45194 0.1634,7.67996 c 0.44453,3.44833 1.74434,5.35717 4.08509,5.39231 l 5.0655,-0.49021 c 1.76716,-0.27238 3.626,-0.33848 3.92168,-3.92168 l 0.1634,-5.88252 c -0.26763,-2.93739 -1.49188,-5.2769 -5.2289,-6.04592 l -5.55572,0.65361 c -1.17306,0.41912 -2.19366,1.06692 -2.61445,2.61445 z m 10.45781,-6.04592 0.49021,-14.21609 c 0.95674,-6.45812 -1.35718,-3.70315 -1.96084,0 -0.608,2.74685 -1.13114,4.94869 -1.30722,7.35315 -0.27037,3.35597 -3.38401,4.45612 -4.24849,0.1634 l -2.28765,-8.98718 c -0.1862,-2.13943 -2.03371,-4.03433 -2.61445,0.49021 l 0.81702,15.85012 c 0.97367,3.26082 2.55073,2.29796 3.92168,2.77786 l 5.39231,-0.65361 c 0.68341,-0.50462 1.51959,-0.24538 1.79743,-2.77786 z"
                       id="path5044"
                       style="fill:none;stroke:#000000;stroke-width:1px;stroke-linecap:butt;stroke-linejoin:miter;stroke-opacity:1">
                      <title
                         id="title5237">right second maxillary premolar</title>
                    </path>
                    <path
                       d="m 559.60171,442.52976 c 0.65288,2.76957 0.47943,5.81458 0,8.96159 -0.35897,2.03527 -1.03128,3.93556 -3.98293,4.12518 l -3.98293,-0.14225 c -3.15863,-0.42552 -5.92233,-1.50924 -6.82788,-5.6899 l 0,-8.53485 c 0.79084,-2.02017 1.97048,-2.09635 3.12944,-2.27596 l 8.25036,0 c 2.10464,0.21874 2.7973,1.84945 3.41394,3.55619 z m -11.94879,-3.41394 c -2.23436,0.1218 -3.68236,-0.65511 -3.2717,-3.55619 0.51202,-5.87956 0.84851,-11.75913 1.70697,-17.63869 1.34238,-7.60182 2.29763,-3.58987 3.2717,-0.14225 l 0,8.10811 0.28449,-7.96586 c -0.18168,-1.88954 -0.23203,-3.46716 2.56046,1.70697 1.72232,2.73477 3.20839,5.70579 4.55192,8.81935 0.62323,1.74073 1.17509,3.6242 1.42247,6.11664 0.32588,1.70546 0.77439,3.44158 -1.84922,4.40967 z"
                       id="path5052"
                       style="fill:none;stroke:#000000;stroke-width:1px;stroke-linecap:butt;stroke-linejoin:miter;stroke-opacity:1">
                      <title
                         id="title5234">right first maxillary premolar</title>
                    </path>
                    <path
                       d="m 563.15789,442.67201 0,6.40114 c 0.35931,4.9064 3.09121,6.45357 5.54766,7.82361 3.27863,1.00267 5.02436,0.47244 6.82788,0 2.1474,-0.79238 2.56041,-3.31915 2.84495,-5.9744 l 0.14225,-8.81934 c -0.33817,-2.64903 -1.47934,-4.49506 -4.83642,-4.12518 l -6.97013,-0.14225 c -2.12803,0.5124 -3.69064,1.68446 -3.55619,4.83642 z m 3.69844,-4.83642 c -3.23792,0.0339 -4.03608,-1.76194 -4.26743,-3.98293 l 0.42675,-25.88905 c 0.7334,-4.98058 2.49115,-6.04513 5.12091,-1.56472 4.64299,9.05643 6.93325,18.11285 8.96159,27.16928 0.33444,1.97351 0.273,3.78866 -3.12944,4.26742 z"
                       id="path5056"
                       style="fill:none;stroke:#000000;stroke-width:1px;stroke-linecap:butt;stroke-linejoin:miter;stroke-opacity:1">
                      <title
                         id="title5231">right maxillary canine</title>
                    </path>
                    <path
                       d="m 601.13798,445.51696 c 0.29292,2.56045 0.22005,5.12091 0.14225,7.68136 -0.32239,1.75439 0.18834,3.93552 -3.12945,4.83642 l -3.55619,0.28449 c -4.24971,-0.0659 -7.31531,-1.45756 -7.82361,-6.11664 l 0.14225,-7.11238 c 0.2845,-3.97161 3.69843,-3.93146 5.54765,-3.69843 1.40378,0.1906 3.92934,-0.28084 6.11664,0.99573 1.93256,0.77338 2.06528,1.99672 2.56046,3.12945 z m -0.99573,-4.26743 c 2.19625,-1.06583 0.89307,-16.08593 0.14225,-22.33286 -0.75356,-5.20566 -2.53746,-2.85553 -4.40968,0.14225 -3.11781,5.86934 -5.76998,11.87173 -6.25889,18.49218 0,2.45572 1.70697,3.18671 2.41821,3.55619 3.75488,0.56118 5.58601,-0.0326 6.25889,1.13797 1.44139,0.12683 1.45728,-0.28885 1.84922,-0.99573 z"
                       id="path5060"
                       style="fill:none;stroke:#000000;stroke-width:1px;stroke-linecap:butt;stroke-linejoin:miter;stroke-opacity:1">
                      <title
                         id="title5228">right second maxillary incisor</title>
                    </path>
                    <path
                       d="m 618.91892,445.51695 c 0.89445,2.51304 0.47967,7.1598 0.56899,10.24183 0.0275,1.61713 -0.30296,3.04025 -2.84495,3.55619 l -7.39687,-0.42675 c -2.76944,-0.33442 -3.7177,-1.7095 -3.84068,-3.55618 l -0.14225,-10.09958 c 1.09418,-2.2159 2.85226,-2.10812 4.69417,-1.70697 l 5.12091,0.14225 c 1.42411,0.27959 2.93374,0.87161 3.84068,1.84921 z m -1.28023,-5.68989 c 0.76066,-4.69216 0.89779,-10.00786 0.14225,-16.21622 -3.25876,-13.36432 -4.7141,-7.25175 -6.11664,-0.56899 -1.06586,6.66692 -2.39696,12.00765 -3.84069,16.78521 -0.49022,1.83354 0.34949,3.00212 2.13372,3.69843 l 4.97866,0.14225 c 2.23366,-0.48057 2.27499,-2.27654 2.7027,-3.84068 z"
                       id="path5064"
                       style="fill:none;stroke:#000000;stroke-width:1px;stroke-linecap:butt;stroke-linejoin:miter;stroke-opacity:1">
                      <title
                         id="title5225">right first maxillary incisor</title>
                    </path>
                    <path
                       d="m 455.89528,430.03329 -0.1634,8.98718 c -0.0447,2.45623 -3.25174,2.79329 -5.06551,3.59488 -3.63355,1.60584 -7.18734,1.03564 -10.78462,0.1634 -5.1339,-1.24483 -5.14146,-3.41353 -5.2289,-5.55571 l -0.32681,-8.00677 c -0.18325,-4.48967 3.942,-3.77742 6.04592,-3.43147 4.20399,0.69126 8.16344,0.93427 12.41866,0.32681 2.70865,-0.38667 3.13898,2.03423 3.10466,3.92168 z m -19.6084,14.8697 0.1634,8.49698 c 0.7313,3.58028 1.57747,6.27989 3.59488,0 1.11458,-3.51748 4.12535,-3.98006 5.71912,-10e-6 1.07309,2.34256 1.1167,2.02917 1.96083,4.7387 0.75609,1.94625 1.52776,3.84886 4.41189,-0.1634 2.28626,-4.24849 2.81308,-8.49697 2.94126,-12.74546 -0.0879,-2.4637 -0.56139,-4.44546 -4.08508,-2.61445 -3.02671,1.26124 -6.34287,1.07526 -9.8042,0.1634 -4.77366,-1.385 -5.30666,0.0571 -4.9021,2.12424 z"
                       id="path5030"
                       style="fill:none;stroke:#000000;stroke-width:1px;stroke-linecap:butt;stroke-linejoin:miter;stroke-opacity:1">
                      <title
                         id="title5245">right third mandibular molar</title>
                    </path>
                    <path
                       d="m 484.00065,430.3601 0.1634,10.78462 c -0.27233,2.8868 -1.96084,4.57529 -5.0655,5.0655 -1.84637,0.46734 -5.87682,0.69713 -14.8697,-3.26807 -3.51336,-2.01531 -3.29021,-3.05019 -3.75828,-5.0655 l -0.1634,-8.49697 c 0.62858,-5.12883 4.66752,-5.45574 7.02634,-4.24849 2.8418,1.09645 6.04389,1.86214 9.15059,1.47063 3.02675,-0.40444 8.39857,-3.8535 7.51655,3.75828 z m -2.45105,15.09657 -0.1634,13.82582 c -0.14391,8.95275 -4.88695,6.43648 -7.02634,2.45105 l -1.63404,-4.7387 c -0.32681,-2.09096 -2.61445,-6.20242 -3.92168,0 l -1.30722,5.71912 c -1.25428,4.49496 -4.03552,2.96687 -4.5753,-0.32681 l -1.63403,-16.01353 c -0.51059,-3.82198 2.1006,-3.95457 6.37273,-2.12424 4.62976,2.41329 11.96222,2.65967 13.88928,1.20729 z"
                       id="path5034"
                       style="fill:none;stroke:#000000;stroke-width:1px;stroke-linecap:butt;stroke-linejoin:miter;stroke-opacity:1">
                      <title
                         id="title5243">right second mandibular molar</title>
                    </path>
                    <path
                       d="m 520.0569,492.03189 0,-12.23328 c 0.76552,-1.26649 2.18434,-0.94189 3.69843,-0.71123 l 14.93599,0.71123 c 2.40009,0.49511 2.44855,1.80153 2.27596,3.41394 l -2.13371,11.3798 c -1.76352,5.98072 -4.27979,7.65831 -6.11664,1.99146 l -1.84922,-5.26315 c -1.11521,-4.12034 -2.89504,-2.84128 -3.55619,0.14224 l -1.56472,4.55192 c -2.65529,4.93126 -5.6899,3.03461 -5.6899,-3.98293 z m 0.14225,-18.63442 0.14224,-9.67283 c 0.13864,-2.86769 1.94837,-3.43763 5.12091,-2.13371 3.46136,1.61167 6.92271,1.65207 10.38407,0.99573 2.93699,-0.50681 6.29304,-2.21094 6.68564,4.55192 l -0.14225,6.11664 c -0.25958,2.68407 0.61475,6.05581 -5.4054,6.25889 -3.15631,-0.18334 -7.99776,-0.26813 -11.6643,-0.56899 -4.3426,-0.0388 -5.81219,0.36936 -5.12091,-5.54765 z"
                       id="path5048"
                       style="fill:none;stroke:#000000;stroke-width:1px;stroke-linecap:butt;stroke-linejoin:miter;stroke-opacity:1">
                      <title
                         id="title5293">right first mandibular molar</title>
                    </path>
                    <path
                       d="m 558.74822,479.22962 c 1.09735,2.57965 -1.40157,12.71361 -7.11237,19.48791 -1.46989,1.38921 -2.93979,3.56397 -4.40968,-0.14225 -1.85567,-5.87956 -2.33867,-11.75913 -2.7027,-17.63869 0.0637,-3.19988 1.79771,-3.89425 4.12518,-3.69844 l 7.53912,0.2845 c 2.11239,0.0654 2.2897,0.90489 2.56045,1.70697 z m 0.99573,-13.08677 -0.14224,7.39687 c 0.0969,2.88285 -1.04753,4.36918 -3.98293,3.84068 l -5.83215,-0.14225 c -2.31537,0.17365 -4.47235,0.0305 -4.55192,-4.26742 l -0.14225,-6.40114 c 0.28764,-3.7427 2.13147,-4.22225 4.97866,-4.55192 l 6.68564,0 c 2.12653,0.68178 3.11991,-0.071 2.98719,4.12518 z"
                       id="path5068"
                       style="fill:none;stroke:#000000;stroke-width:1px;stroke-linecap:butt;stroke-linejoin:miter;stroke-opacity:1">
                      <title
                         id="title5290">right second mandibular premolar</title>
                    </path>
                    <path
                       d="m 563.58464,467.99206 c -0.11089,-2.92731 1.0222,-5.55283 4.69417,-6.11664 l 4.97866,-0.14225 c 2.70293,0.22334 3.34631,2.212 3.41394,4.69417 l 0,4.40967 c -0.41648,3.00773 -1.76655,4.14827 -3.69844,4.12518 -1.79235,0.19912 -3.58389,0.39904 -6.11664,-0.14225 -1.88117,-0.0786 -3.7592,-0.16115 -3.55619,-2.84495 0.37112,-2.02837 0.27305,-3.07747 0.2845,-3.98293 z m 12.23328,9.81508 c -0.0251,8.12484 -1.47536,15.18082 -2.98719,22.19061 -1.56283,4.39064 -3.37749,7.13757 -5.68991,0.2845 -1.43379,-3.58943 -3.08596,-7.62344 -3.84068,-10.95306 -0.45784,-3.82105 -1.01301,-7.61777 0,-11.80654 1.04315,-2.07756 2.0863,-2.33767 3.12945,-2.56046 3.62184,0.67476 5.49425,0.29987 7.25462,-0.14225 2.19838,0.25216 2.1545,1.62545 2.13371,2.9872 z"
                       id="path5072"
                       style="fill:none;stroke:#000000;stroke-width:1px;stroke-linecap:butt;stroke-linejoin:miter;stroke-opacity:1">
                      <title
                         id="title5287">right first mandibular premolar</title>
                    </path>
                    <path
                       d="m 592.17639,478.94512 c 0.21915,-2.99357 0.30173,-6.39682 0.14224,-10.52631 -0.44184,-2.45669 -0.18183,-5.01365 -3.12944,-7.11238 -2.08967,-1.47663 -3.41056,-1.41572 -3.98293,0.14225 -3.03994,5.78384 -4.0352,11.90847 -4.83642,18.06543 0.002,2.62849 1.21313,3.56301 2.9872,4.12518 l 4.55192,0 c 1.69681,-0.59102 3.30545,-0.79642 4.26743,-4.69417 z m -4.40968,4.55192 c 1.30176,0.68121 2.6227,1.20901 3.55619,4.83642 0.62195,4.74158 0.4686,9.48317 -0.42674,14.22475 -1.65807,7.07569 -2.82732,16.48265 -9.24609,0.85348 -1.70697,-5.78473 -2.0863,-11.56946 -1.13798,-17.35419 0.85349,-1.90902 1.70697,-2.10201 2.56046,-2.56046 1.98123,0.62477 3.46998,0.51081 4.69416,0 z"
                       id="path5076"
                       style="fill:none;stroke:#000000;stroke-width:1px;stroke-linecap:butt;stroke-linejoin:miter;stroke-opacity:1">
                      <title
                         id="title5284">right mandibular canine</title>
                    </path>
                    <path
                       d="m 606.82788,472.68623 0,-5.6899 c -0.35165,-3.45678 -1.22853,-5.95063 -3.84068,-5.26316 L 600,462.01767 c -1.67804,0.2001 -3.30725,0.49787 -3.12945,4.40967 l -0.14224,6.82788 c -0.0291,2.88118 1.21504,2.79158 2.27596,3.12945 2.78167,0.41881 4.26366,0.18778 5.54765,-0.14225 1.54939,-0.19697 2.2433,-1.4633 2.27596,-3.55619 z m -0.99573,6.11665 c 0.42219,5.39469 -0.0439,11.01144 -1.13798,16.7852 -2.13371,8.44736 -4.26743,9.8805 -6.40114,0.14225 -0.93155,-5.75264 -1.39074,-11.26911 -1.56472,-16.64296 0.3409,-1.45641 1.03425,-2.38414 2.13371,-2.7027 2.37882,0.43477 4.05543,0.16733 5.6899,-0.14225 0.4797,0.64168 1.14538,0.53942 1.28023,2.56046 z"
                       id="path5080"
                       style="fill:none;stroke:#000000;stroke-width:1px;stroke-linecap:butt;stroke-linejoin:miter;stroke-opacity:1">
                      <title
                         id="title5281">right second mandibular incisor</title>
                    </path>
                    <path
                       d="m 620.19915,472.40174 0.28449,-4.55192 c 0.0567,-2.88278 -0.92248,-5.07491 -4.26742,-5.6899 l -3.12945,-0.14225 c -1.37893,0.32031 -3.1794,-0.62402 -3.12944,3.98293 l 0.14224,6.11664 c -0.0158,2.06519 0.59544,3.71241 2.84495,4.26743 l 5.9744,-0.14225 c 0.85868,-0.41635 1.17688,-1.91367 1.28023,-3.84068 z m 0.71123,5.83214 c 0.67137,1.20892 0.1821,6.09318 -1.42247,14.50925 -2.84151,12.72534 -5.12435,12.97386 -6.82788,0.2845 l -1.42248,-14.50925 c 0.12445,-1.48769 1.06113,-2.16315 2.70271,-2.13371 l 3.98293,-0.14225 c 1.28189,-0.0516 2.45483,0.16921 2.98719,1.99146 z"
                       id="path5084"
                       style="fill:none;stroke:#000000;stroke-width:1px;stroke-linecap:butt;stroke-linejoin:miter;stroke-opacity:1">
                      <title
                         id="title5278">right firs mandibular incisor</title>
                    </path>
                    <path
                       d="m 637.4111,446.08595 c 1.05025,4.78602 0.23352,6.38483 -0.14225,8.96159 -0.3513,1.32764 -0.45517,2.65529 -2.13371,3.98293 -3.10046,1.51463 -6.38093,1.08433 -9.24609,0 -0.75865,-0.56899 -1.32764,-1.70697 -1.70697,-3.41394 l 0.14224,-10.09957 c 0.33783,-1.01115 0.78788,-1.95497 2.9872,-1.84922 l 6.54339,0.14225 c 1.65592,0.0529 2.79026,0.10576 3.55619,2.27596 z m -11.6643,-5.83215 c -0.13362,-6.39683 -10e-4,-13.14856 0.99573,-21.05263 0.9742,-3.59811 2.49002,-4.3527 4.97866,0 2.45177,6.43513 3.1032,13.59039 3.69844,20.76813 0.36396,1.69929 -0.27281,2.89821 -1.42247,3.84069 l -6.40114,-0.14225 c -1.99705,-1.3061 -1.50647,-2.30928 -1.84922,-3.41394 z"
                       id="path5096"
                       style="fill:none;stroke:#000000;stroke-width:1px;stroke-linecap:butt;stroke-linejoin:miter;stroke-opacity:1">
                      <title
                         id="title5254">left first maxillary incisor</title>
                    </path>
                    <path
                       d="m 641.82077,446.37044 0,9.53059 c -0.18785,1.91522 1.57487,2.94743 2.9872,2.7027 6.44117,-0.50299 11.48105,-2.2424 11.52204,-8.3926 l -0.14224,-7.25463 c -0.65382,-3.84575 -2.68188,-2.65261 -4.40968,-2.56045 -1.66035,0.85375 -4.33169,2.0445 -7.11237,3.27169 -0.65992,0.32411 -2.7153,-0.11706 -2.84495,2.7027 z m 12.09104,-9.53058 -6.54339,-17.63869 c -2.51631,-6.82437 -4.92748,-3.92419 -5.4054,0.42674 -0.65464,6.92271 -0.3257,13.84543 0.14224,20.76814 0.19868,1.98245 0.39574,3.96652 3.55619,2.98719 2.18113,-1.41809 4.36226,-2.17479 6.54339,-2.84495 2.02267,-0.81747 2.33433,-2.12381 1.70697,-3.69843 z"
                       id="path5100"
                       style="fill:none;stroke:#000000;stroke-width:1px;stroke-linecap:butt;stroke-linejoin:miter;stroke-opacity:1">
                      <title
                         id="title5257">left second maxillary incisor</title>
                    </path>
                    <path
                       d="m 664.86486,442.9565 0.2845,7.68137 c 0.29097,3.45488 1.33284,6.15886 4.26743,6.97013 2.039,0.33199 3.06401,-0.012 3.98293,-0.42675 4.76129,-0.93353 6.01665,-4.49652 6.25889,-8.81934 l 0.14224,-4.97867 c -0.25285,-5.83857 -2.29966,-5.93649 -4.40967,-5.83214 -2.32338,0.0948 -4.64675,0.18966 -6.97013,0.28449 -2.00786,0.19912 -3.78958,0.81283 -3.55619,5.12091 z m 15.64723,-9.24609 c 0.72698,-8.11598 0.64795,-15.82895 -0.14225,-23.18634 -1.13265,-6.03669 -2.30293,-11.84287 -6.40113,0.28449 l -6.25889,17.6387 c -1.06391,2.81829 -1.63829,5.14706 -1.56473,6.82788 0.0948,2.18113 1.13798,3.03461 3.12945,2.56045 3.08645,-0.40525 5.40397,-0.42603 7.11237,-0.14225 2.78714,-0.44509 4.36969,-1.64305 4.12518,-3.98293 z"
                       id="path5104"
                       style="fill:none;stroke:#000000;stroke-width:1px;stroke-linecap:butt;stroke-linejoin:miter;stroke-opacity:1">
                      <title
                         id="title5260">left canine</title>
                    </path>
                    <path
                       d="m 698.86202,442.24526 -0.14225,5.83215 c -0.34957,2.13371 -1.22317,4.26743 -5.6899,6.40114 -4.17988,1.8811 -8.05481,2.92361 -9.24609,-3.41394 l 0,-8.53485 c 0.034,-2.33682 0.68825,-4.05333 2.9872,-4.12518 2.9185,0.0474 5.74003,0.0948 9.38834,0.14225 1.4342,-0.0116 2.40557,1.05682 2.7027,3.69843 z m -0.2845,-6.40113 c -0.16674,-5.40698 -0.31806,-10.78313 -0.85348,-16.92746 -0.78575,-8.06743 -3.20779,-6.04446 -6.25889,-0.14224 -6.18234,10.63086 -4.55793,8.43634 -5.9744,11.23755 -0.41872,0.91767 -0.80767,2.07344 -0.85348,5.97439 0.12536,1.39806 0.42616,2.65576 2.41821,2.56046 l 8.25035,0 c 1.59725,0.11247 3.15881,0.15356 3.27169,-2.7027 z"
                       id="path5120"
                       style="fill:none;stroke:#000000;stroke-width:1px;stroke-linecap:butt;stroke-linejoin:miter;stroke-opacity:1">
                      <title
                         id="title5263">left first maxillary premolar</title>
                    </path>
                    <path
                       d="m 715.78947,443.66774 -0.14224,4.83642 c 0.39423,4.90725 -1.8943,6.61478 -5.26316,6.11664 -4.66353,0.0168 -8.41658,-0.87692 -7.82361,-6.11664 0.21378,-2.77342 0.73516,-5.23924 1.70697,-7.25463 0.89106,-1.99954 1.3145,-2.12857 1.84921,-2.7027 2.28281,-0.25078 4.49418,-0.35868 6.40114,0.14225 3.72556,0.0786 3.1746,2.72302 3.27169,4.97866 z m -11.66429,-7.68137 0,-13.51351 c 0.21505,-4.79011 0.48866,-9.12346 2.56045,0.56899 l 1.28023,5.12091 c 2.06111,5.78924 3.52791,3.85234 4.83642,-0.14225 l 1.56472,-6.54338 c 0.71124,-3.27364 1.42247,-4.9941 2.13371,0 0.81809,4.83641 0.50796,9.67283 -0.56899,14.50924 -0.52419,2.50782 -2.37731,2.35775 -3.98293,2.70271 -2.94148,-0.54613 -4.36784,-0.3347 -5.83215,-0.14225 -0.95854,-0.11669 -1.78404,-0.56598 -1.99146,-2.56046 z"
                       id="path5128"
                       style="fill:none;stroke:#000000;stroke-width:1px;stroke-linecap:butt;stroke-linejoin:miter;stroke-opacity:1">
                      <title
                         id="title5266">left second maxillary premolar</title>
                    </path>
                    <path
                       d="m 743.101,442.10302 0.28449,8.53485 c -0.5386,2.3486 -0.40163,4.95853 -5.12091,5.6899 -4.53519,0.17231 -8.17397,0.54382 -15.93172,0 -2.77339,-0.35622 -4.23753,-2.54541 -5.12091,-5.54765 l 0.14225,-9.10385 c 0.72267,-3.2104 2.91618,-3.11141 5.12091,-2.98719 5.09499,0 9.88769,0 14.22475,0 4.20431,-0.53131 6.74045,0.16299 6.40114,3.41394 z m -25.03557,-7.68137 c 0.13186,-3.93551 0.3452,-7.87103 0.85349,-11.80654 1.46989,-9.69667 2.93978,-4.6781 4.40967,0.85348 2.65311,7.935 9.83286,8.15792 11.94879,1.84922 1.5686,-4.34897 2.89667,-12.4662 5.54766,0.14225 0.71178,3.50891 0.66328,6.82774 -0.14225,9.95732 -1.26718,2.62981 -3.09954,3.28154 -5.12091,3.2717 l -13.08677,0 c -3.44813,-0.43336 -3.92217,-2.35376 -4.40968,-4.26743 z m 6.82789,-7.96586 3.84068,-5.26316 c 2.31064,-4.0542 3.66246,-3.95347 3.69843,1.84922 0.33191,2.12333 0.66383,3.56554 0.99574,4.55192 l 0.12376,0.37129"
                       id="path5134"
                       style="fill:none;stroke:#000000;stroke-width:1px;stroke-linecap:butt;stroke-linejoin:miter;stroke-opacity:1">
                      <title
                         id="title5269">left first maxillary molar</title>
                    </path>
                    <path
                       d="m 699.75248,397.55983 c -0.18217,1.45594 -0.34056,2.92378 0.12376,4.70297 0.97194,5.53771 4.51889,7.90618 9.77723,8.16832 l 11.26237,0 c 4.96491,-0.52807 6.69201,-2.90631 7.05446,-6.06436 0.43428,-3.6521 1.33515,-6.16189 -0.24753,-8.66337 -2.03408,-2.45049 -4.46028,-0.91099 -6.80693,-0.24752 l -16.33663,-0.12376 c -2.01961,-0.28417 -4.09044,-0.69641 -4.82673,2.22772 z m 9.03465,-12.12871 c 0.49582,-1.94126 1.15435,-4.37063 1.9802,-7.30198 1.48515,-4.86928 2.97029,-4.90782 4.45544,0.12376 l 1.85644,8.04455 0,-0.12376 m -15.59406,4.9505 0,-11.63367 c 0.79589,-9.14884 2.71325,-3.34472 4.45544,0.12376 5.033,13.43163 10.06601,10.97357 15.09901,0.37129 2.35314,-7.93077 4.16405,-9.21913 5.19802,-0.9901 0.45317,4.13896 0.65508,8.19416 0.12377,12.00495 -0.55002,3.74041 -4.15452,4.42634 -8.29208,4.57921 l -9.28218,0 c -3.06622,-0.36118 -7.02325,0.86129 -7.30198,-4.45544 z"
                       id="path5140"
                       style="fill:none;stroke:#000000;stroke-width:1px;stroke-linecap:butt;stroke-linejoin:miter;stroke-opacity:1">
                      <title
                         id="title5275">left second maxillary molar</title>
                    </path>
                    <path
                       d="m 749.25743,399.78755 c -0.14181,2.76374 -0.99112,4.97721 -4.08416,5.44555 l -9.03466,0.24752 c -2.48131,-0.0816 -4.7892,-0.71055 -6.18811,-4.20792 -0.35824,-2.00714 -0.86528,-3.89524 0.37128,-7.17822 1.18011,-2.20212 3.29626,-1.12812 5.07426,-1.23762 l 10.5198,-0.9901 c 4.49607,0.1673 3.82928,4.86979 3.34159,7.92079 z m 0,-10.64356 c 0.77234,-3.63589 1.234,-7.64461 0.37128,-13.24258 -0.32129,-3.40278 -0.80708,-9.7382 -3.21782,0 -1.17135,4.87336 -6.30706,14.50139 -10.89109,0.86634 -5.25345,-14.21469 -6.40675,-4.47653 -6.31188,-0.49505 -0.0936,5.05016 0.54789,9.51218 2.10396,13.24257 0.7519,1.39332 1.49992,2.79052 3.21782,3.21783 l 10.51981,-0.86634 c 2.2684,-0.21499 3.58884,-1.18833 4.20792,-2.72277 z m -13.4901,-12.25248 c 1.81518,-6.26619 2.76402,-6.81031 5.44554,-1.60891 0.56281,2.1 4.73695,7.13536 2.9703,5.07425"
                       id="path5146"
                       style="fill:none;stroke:#000000;stroke-width:1px;stroke-linecap:butt;stroke-linejoin:miter;stroke-opacity:1">
                      <title
                         id="title5272">left third maxillary molar</title>
                    </path>
                    <path
                       d="m 633.28592,466.28509 0,6.25889 c -0.0655,2.28889 -1.27157,3.15212 -2.84495,3.55619 -1.54188,0.0474 -2.94272,0.0948 -4.83642,0.14225 -1.35509,0.0532 -2.8676,0.68365 -3.12944,-3.27169 l 0.28449,-7.25463 c 0.45064,-3.66239 2.33046,-3.75185 4.26743,-3.69843 l 3.98293,0 c 1.69553,0.48559 2.477,1.88525 2.27596,4.26742 z m -1.13798,12.80228 c 0.56074,0.32576 -0.38761,8.19694 -1.70697,17.92319 -0.94253,3.75782 -1.46164,9.16227 -5.6899,0.14224 -1.96425,-6.2299 -2.42492,-12.29499 -1.84922,-18.77667 0.50346,-1.31646 1.16231,-2.32213 2.41821,-2.13371 l 3.69843,0 c 1.68256,-0.11736 3.63846,-0.6903 3.12945,2.84495 z"
                       id="path5088"
                       style="fill:none;stroke:#000000;stroke-width:1px;stroke-linecap:butt;stroke-linejoin:miter;stroke-opacity:1">
                      <title
                         id="title5296">left first mandibular incisor</title>
                    </path>
                    <path
                       d="m 646.23044,466.14285 0.56899,6.97012 c -0.0586,1.48802 0.40095,3.23509 -2.56045,3.2717 -1.65956,-0.0948 -3.31911,-0.18967 -4.97867,-0.2845 -1.33235,-0.068 -2.75595,0.0768 -2.98719,-2.56045 l -0.2845,-8.53485 c -0.18545,-1.97698 0.8519,-3.18971 3.69844,-3.2717 l 4.12517,0.14225 c 1.69754,0.30814 2.22706,2.07631 2.41821,4.26743 z m 0,12.37553 c 0,4.07777 -0.15641,8.62474 -1.28023,16.07397 -1.42108,9.54038 -3.27459,11.15267 -5.83214,-0.14225 -0.94832,-4.93125 -1.70697,-10.24182 -2.27596,-15.93172 -0.09,-1.82441 0.47353,-2.86468 2.27596,-2.41821 1.8018,0.5326 3.6036,0.35306 5.4054,0.14225 0.87418,-0.004 1.58563,0.39817 1.70697,2.27596 z"
                       id="path5092"
                       style="fill:none;stroke:#000000;stroke-width:1px;stroke-linecap:butt;stroke-linejoin:miter;stroke-opacity:1">
                      <title
                         id="title5302">left second mandibular incisor</title>
                    </path>
                    <path
                       d="m 651.35135,478.80288 c -0.74414,-3.74585 -0.63031,-7.49171 0.14225,-11.23756 4.96144,-12.08254 6.96222,-6.40113 8.96159,-0.71124 0.91886,4.08926 2.87366,8.6671 2.13371,13.51352 -0.41028,1.22632 0.0465,2.82426 -2.84495,2.9872 l -4.69416,0 c -1.50536,-0.5836 -2.79958,-1.89053 -3.69844,-4.55192 z m 10.95306,7.82361 c 0.41017,5.6899 0.20095,11.3798 -1.28023,17.0697 -3.21922,11.25077 -6.26389,11.50537 -9.10384,-1.13798 -0.96151,-5.21574 -0.49653,-10.43149 0.42674,-15.64723 0.55104,-1.69545 1.50022,-2.59463 2.41821,-3.55618 2.32477,0.57038 3.80841,0.29963 5.40541,0.14224 1.1963,1.04315 1.68085,2.0863 2.13371,3.12945 z"
                       id="path5108"
                       style="fill:none;stroke:#000000;stroke-width:1px;stroke-linecap:butt;stroke-linejoin:miter;stroke-opacity:1">
                      <title
                         id="title5299">left mandibular canine</title>
                    </path>
                    <path
                       d="m 679.65861,466.85408 -0.14225,4.12518 c -0.0648,1.7594 -0.52695,3.45256 -2.84495,4.83642 l -5.83215,0.28449 c -1.71759,-0.14721 -4.01227,0.44924 -4.26743,-3.98293 l 0.14225,-6.97013 c -0.007,-1.61556 0.8631,-2.79273 3.12945,-3.27169 l 6.54338,0.14225 c 1.56351,0.76084 3.51406,0.82501 3.2717,4.83641 z m 0.28449,10.24182 c 0.80666,0.94607 1.29885,3.09757 -0.14225,12.66003 -5.05556,22.00034 -8.63293,15.02811 -11.80654,0.14225 -0.50839,-4.30605 -1.51217,-8.94236 0.14225,-11.80654 0.80607,-1.33326 1.61214,-2.17128 2.41821,-1.99147 l 6.25889,-0.14225 c 1.80175,0.37933 2.43132,0.75865 3.12944,1.13798 z"
                       id="path5112"
                       style="fill:none;stroke:#000000;stroke-width:1px;stroke-linecap:butt;stroke-linejoin:miter;stroke-opacity:1">
                      <title
                         id="title5305">left first mandibular premolar</title>
                    </path>
                    <path
                       d="m 697.0128,467.99206 0,5.83215 c 0.0247,1.43962 -0.45182,2.21091 -1.56472,2.13371 l -8.81935,2.27596 c -1.34359,0.11119 -2.53794,-0.37453 -3.12944,-3.27169 -0.20973,-3.12944 -0.25853,-6.25889 0.28449,-9.38833 0.42453,-2.54228 0.41283,-3.11681 2.84495,-3.69844 2.65529,-0.46614 5.02608,-0.41158 7.53912,0.14225 1.68139,-0.23775 2.6742,2.05562 2.84495,5.97439 z m -12.37553,12.23329 c -0.77092,3.37143 1.02166,5.71746 1.99146,8.3926 0.74728,2.07493 2.20787,4.86315 3.69844,7.68137 5.42911,9.41204 5.57543,4.48505 5.83215,-0.14225 -0.27153,-12.40976 2.2029,-12.78762 1.42247,-18.20768 -0.18155,-2.44264 -1.21861,-1.95923 -2.56045,-1.84922 l -8.53485,2.13371 z"
                       id="path5116"
                       style="fill:none;stroke:#000000;stroke-width:1px;stroke-linecap:butt;stroke-linejoin:miter;stroke-opacity:1">
                      <title
                         id="title5308">left second mandibular premolar</title>
                    </path>
                    <path
                       d="m 723.32859,465.28936 0.14225,7.53912 c 0.002,1.61214 -0.63501,3.22427 -3.27169,4.83641 -4.21005,1.97597 -8.70486,3.58173 -16.64296,0.71124 -1.6792,-0.91886 -3.20421,-1.2155 -3.41395,-4.55192 0.0802,-2.61124 -0.0527,-4.28179 0.42675,-5.83215 0.80608,-7.21666 3.97192,-6.92068 8.53485,-5.12091 1.93366,0.60211 4.20528,1.25738 7.25463,10e-6 3.06177,-1.31474 6.86268,-4.75773 6.97012,2.4182 z m -20.0569,13.08677 c 5.42719,1.94535 10.9797,2.26151 16.78521,-0.71124 2.74487,-1.04779 3.5371,1.31833 3.27169,4.40968 0.27056,2.55485 -0.1785,5.84609 -0.28449,9.53058 -0.87074,7.45286 -2.78707,9.67776 -6.68564,1.99147 -1.65955,-6.60794 -3.31911,-8.06391 -4.97866,-0.2845 -2.00576,10.44882 -5.46587,8.70491 -7.39687,0.99573 l -1.84922,-12.51778 c -0.9847,-3.86604 0.33512,-3.12302 1.13798,-3.41394 z"
                       id="path5124"
                       style="fill:none;stroke:#000000;stroke-width:1px;stroke-linecap:butt;stroke-linejoin:miter;stroke-opacity:1">
                      <title
                         id="title5311">left first mandibular molar</title>
                    </path>
                    <path
                       d="m 759.95976,431.21722 c 0.56798,3.30421 0.30295,6.01888 -0.40242,9.45674 -0.56546,3.11614 0.37996,5.39291 4.62777,5.83501 l 14.08451,-2.8169 c 3.22942,-0.59352 4.81884,-2.82703 4.82897,-6.63984 l 0.20121,-7.24346 c -0.55102,-6.42065 -2.94348,-4.86173 -5.03018,-4.62777 -2.74543,0.78611 -5.76977,1.88631 -14.28572,0.60362 -3.1543,-0.45528 -4.73902,-0.0552 -4.02414,5.4326 z m 1.00603,17.70624 c -1.33548,3.41905 -0.77867,6.36502 0,9.25553 5.45603,13.62342 6.57105,6.16201 8.45071,2.41449 1.71171,-7.83272 3.58859,-10.21518 5.83501,-0.40242 3.82479,10.08376 4.56771,3.52546 5.83501,-0.20121 1.20724,-5.36553 1.34138,-9.38967 0.40241,-12.07243 -0.47254,-6.1307 -2.91455,-4.06666 -5.83501,-3.62173 l -10.06036,2.01207 c -2.30776,-0.40338 -3.92887,0.33764 -4.62777,2.6157 z"
                       id="path5150"
                       style="fill:none;stroke:#000000;stroke-width:1px;stroke-linecap:butt;stroke-linejoin:miter;stroke-opacity:1">
                      <title
                         id="title5314">left second mandibular molar</title>
                    </path>
                    <path
                       d="m 808.85312,430.41239 0,6.23742 c -0.67922,3.72892 -3.40716,4.37621 -4.42656,4.82898 -3.77579,3.24121 -7.96519,2.75996 -12.27364,1.20724 -3.2639,-1.34138 -4.21174,-2.68276 -4.82898,-4.02414 -1.13486,-3.08518 -1.21254,-6.17036 -0.2012,-9.25554 1.89621,-3.32897 3.25356,-3.4248 4.62776,-3.62173 4.52258,1.48084 8.42109,1.40147 11.87123,0.20121 2.28837,-0.1582 4.98986,-1.55577 5.23139,4.42656 z m -1.40845,14.48692 0.20121,7.04225 c -0.39972,4.52631 -0.87723,8.75445 -4.42656,1.20725 -3.11431,-7.35117 -4.35305,-1.23566 -5.4326,1.40845 -2.94582,7.56688 -5.63898,8.05906 -8.04829,0.60362 -0.77298,-3.42052 -1.29885,-6.84105 -1.00604,-10.26157 0.14138,-1.87069 0.70494,-3.31921 4.02415,-2.01207 2.53457,0.44049 4.21131,1.56724 9.25553,0 5.74604,-3.11269 5.38682,-0.63768 5.4326,2.01207 z"
                       id="path5154"
                       style="fill:none;stroke:#000000;stroke-width:1px;stroke-linecap:butt;stroke-linejoin:miter;stroke-opacity:1">
                      <title
                         id="title5317">left third mandibular molar</title>
                    </path>
                  </g>
                </svg>