<?xml version="1.0" encoding="UTF-8" standalone="no"?>
<svg                    xmlns:dc="http://purl.org/dc/elements/1.1/"                    xmlns:cc="http://creativecommons.org/ns#"                    xmlns:rdf="http://www.w3.org/1999/02/22-rdf-syntax-ns#"                    xmlns:svg="http://www.w3.org/2000/svg"                    xmlns="http://www.w3.org/2000/svg"                    xmlns:xlink="http://www.w3.org/1999/xlink"                    version="1.1"                    width="500"                    height="500"                    id="svg2">
	<metadata                      id="metadata7">
		<rdf:RDF>
			<cc:Work                          rdf:about="">
				<dc:format>image/svg+xml</dc:format>
				<dc:type                            rdf:resource="http://purl.org/dc/dcmitype/StillImage" />
				<dc:title></dc:title>
			</cc:Work>
		</rdf:RDF>
	</metadata>
	<g                      id="layer5"                      style="display:inline" transform="translate(-360, -130)">
		<path                        d="m 757.37931,330.64621 c 29.92468,7.21993 20.54842,-21.28827 28.01724,-34.48276 6.05355,2.974 9.50611,2.04653 13.36207,1.72414 2.60471,2.86922 5.00078,7.40756 5.60345,26.2931 3.78616,12.39253 8.34962,14.2916 12.93103,15.94828 5.23281,1.08458 10.86252,2.28255 13.36207,2.5862 -4.54841,5.88095 0.42986,9.85656 1.29311,14.65517 -7.98383,4.23901 -19.48793,5.39778 -30.60345,6.89656 l -36.63793,3.01724 c 4.36149,-6.53201 2.81761,-13.32077 -2.15518,-20.25862 -1.8947,-5.41239 -9.86125,-9.13816 -5.17241,-16.37931 z"          
		              id="upper_arm"                        style="fill:#FF11AA;stroke:#000000;stroke-width:1px;stroke-linecap:butt;stroke-linejoin:miter;stroke-opacity:1">
			<title  					   id="title5211">left zygomatic bone</title>
		</path>
		<path                        d="m 471.96413,349.66461 c -29.92468,7.21993 -20.54842,-21.28827 -28.01724,-34.48276 -6.05355,2.974 -9.50611,2.04653 -13.36207,1.72414 -2.60471,2.86922 -5.00078,7.40756 -5.60345,26.2931 -3.78616,12.39253 -8.34962,14.2916 -12.93103,15.94828 -5.23281,1.08458 -10.86252,2.28255 -13.36207,2.5862 4.54841,5.88095 -0.42986,9.85656 -1.29311,14.65517 7.98383,4.23901 19.48793,5.39778 30.60345,6.89656 l 36.63793,3.01724 c -4.36149,-6.53201 -2.81761,-13.32077 2.15518,-20.25862 1.8947,-5.41239 9.86125,-9.13816 5.17241,-16.37931 z"  
		                      id="hand"                     style="fill:#AA0033;stroke:#000000;stroke-width:1px;stroke-linecap:butt;stroke-linejoin:miter;stroke-opacity:1">
			<title                         id="title5213">right zygomatic bone</title>
		</path>
	</g>
</svg>