<?xml version="1.0" encoding="UTF-8" standalone="no"?>
<svg                    xmlns:dc="http://purl.org/dc/elements/1.1/"                    xmlns:cc="http://creativecommons.org/ns#"                    xmlns:rdf="http://www.w3.org/1999/02/22-rdf-syntax-ns#"                    xmlns:svg="http://www.w3.org/2000/svg"                    xmlns="http://www.w3.org/2000/svg"                    xmlns:xlink="http://www.w3.org/1999/xlink"                    version="1.1"                    width="500"                    height="500"                    id="svg2">
	<metadata                      id="metadata7">
		<rdf:RDF>
			<cc:Work                          rdf:about="">
				<dc:format>image/svg+xml</dc:format>
				<dc:type                            rdf:resource="http://purl.org/dc/dcmitype/StillImage" />
				<dc:title></dc:title>
			</cc:Work>
		</rdf:RDF>
	</metadata>
	<g                      id="layer5"                      style="display:inline" transform="translate(-360, -130)">
		<path                        d="m 633.28592,466.28509 0,6.25889 c -0.0655,2.28889 -1.27157,3.15212 -2.84495,3.55619 -1.54188,0.0474 -2.94272,0.0948 -4.83642,0.14225 -1.35509,0.0532 -2.8676,0.68365 -3.12944,-3.27169 l 0.28449,-7.25463 c 0.45064,-3.66239 2.33046,-3.75185 4.26743,-3.69843 l 3.98293,0 c 1.69553,0.48559 2.477,1.88525 2.27596,4.26742 z m -1.13798,12.80228 c 0.56074,0.32576 -0.38761,8.19694 -1.70697,17.92319 -0.94253,3.75782 -1.46164,9.16227 -5.6899,0.14224 -1.96425,-6.2299 -2.42492,-12.29499 -1.84922,-18.77667 0.50346,-1.31646 1.16231,-2.32213 2.41821,-2.13371 l 3.69843,0 c 1.68256,-0.11736 3.63846,-0.6903 3.12945,2.84495 z"                 
		       id="carpus"                        style="fill:#AAAA00;stroke:#000000;stroke-width:1px;stroke-linecap:butt;stroke-linejoin:miter;stroke-opacity:1">
			<title                          id="title5296">left first mandibular incisor</title>
		</path>
		<path                        d="m 646.23044,466.14285 0.56899,6.97012 c -0.0586,1.48802 0.40095,3.23509 -2.56045,3.2717 -1.65956,-0.0948 -3.31911,-0.18967 -4.97867,-0.2845 -1.33235,-0.068 -2.75595,0.0768 -2.98719,-2.56045 l -0.2845,-8.53485 c -0.18545,-1.97698 0.8519,-3.18971 3.69844,-3.2717 l 4.12517,0.14225 c 1.69754,0.30814 2.22706,2.07631 2.41821,4.26743 z m 0,12.37553 c 0,4.07777 -0.15641,8.62474 -1.28023,16.07397 -1.42108,9.54038 -3.27459,11.15267 -5.83214,-0.14225 -0.94832,-4.93125 -1.70697,-10.24182 -2.27596,-15.93172 -0.09,-1.82441 0.47353,-2.86468 2.27596,-2.41821 1.8018,0.5326 3.6036,0.35306 5.4054,0.14225 0.87418,-0.004 1.58563,0.39817 1.70697,2.27596 z"            
		            id="metacarpus"                        style="fill:#00AAAA;stroke:#000000;stroke-width:1px;stroke-linecap:butt;stroke-linejoin:miter;stroke-opacity:1">
			<title                          id="title5302">left second mandibular incisor</title>
		</path>
			</g>
</svg>
