<?xml version="1.0" encoding="UTF-8" standalone="no"?>
<svg                    xmlns:dc="http://purl.org/dc/elements/1.1/"                    xmlns:cc="http://creativecommons.org/ns#"                    xmlns:rdf="http://www.w3.org/1999/02/22-rdf-syntax-ns#"                    xmlns:svg="http://www.w3.org/2000/svg"                    xmlns="http://www.w3.org/2000/svg"                    xmlns:xlink="http://www.w3.org/1999/xlink"                    version="1.1"                    width="500"                    height="500"                    id="svg2">
	<metadata                      id="metadata7">
		<rdf:RDF>
			<cc:Work                          rdf:about="">
				<dc:format>image/svg+xml</dc:format>
				<dc:type                            rdf:resource="http://purl.org/dc/dcmitype/StillImage" />
				<dc:title></dc:title>
			</cc:Work>
		</rdf:RDF>
	</metadata>
	<g                      id="sddds"                      style="display:inline" transform="translate(-360, -130)">
		<path                        d="m 563.58464,467.99206 c -0.11089,-2.92731 1.0222,-5.55283 4.69417,-6.11664 l 4.97866,-0.14225 c 2.70293,0.22334 3.34631,2.212 3.41394,4.69417 l 0,4.40967 c -0.41648,3.00773 -1.76655,4.14827 -3.69844,4.12518 -1.79235,0.19912 -3.58389,0.39904 -6.11664,-0.14225 -1.88117,-0.0786 -3.7592,-0.16115 -3.55619,-2.84495 0.37112,-2.02837 0.27305,-3.07747 0.2845,-3.98293 z m 12.23328,9.81508 c -0.0251,8.12484 -1.47536,15.18082 -2.98719,22.19061 -1.56283,4.39064 -3.37749,7.13757 -5.68991,0.2845 -1.43379,-3.58943 -3.08596,-7.62344 -3.84068,-10.95306 -0.45784,-3.82105 -1.01301,-7.61777 0,-11.80654 1.04315,-2.07756 2.0863,-2.33767 3.12945,-2.56046 3.62184,0.67476 5.49425,0.29987 7.25462,-0.14225 2.19838,0.25216 2.1545,1.62545 2.13371,2.9872 z"                      
		 				 id="skull"                        style="fill:#334455;stroke:#000000;stroke-width:1px;stroke-linecap:butt;stroke-linejoin:miter;stroke-opacity:1">
			<title                          id="title5287">right first mandibular premolar</title>
		</path>
		<path                        d="m 592.17639,478.94512 c 0.21915,-2.99357 0.30173,-6.39682 0.14224,-10.52631 -0.44184,-2.45669 -0.18183,-5.01365 -3.12944,-7.11238 -2.08967,-1.47663 -3.41056,-1.41572 -3.98293,0.14225 -3.03994,5.78384 -4.0352,11.90847 -4.83642,18.06543 0.002,2.62849 1.21313,3.56301 2.9872,4.12518 l 4.55192,0 c 1.69681,-0.59102 3.30545,-0.79642 4.26743,-4.69417 z m -4.40968,4.55192 c 1.30176,0.68121 2.6227,1.20901 3.55619,4.83642 0.62195,4.74158 0.4686,9.48317 -0.42674,14.22475 -1.65807,7.07569 -2.82732,16.48265 -9.24609,0.85348 -1.70697,-5.78473 -2.0863,-11.56946 -1.13798,-17.35419 0.85349,-1.90902 1.70697,-2.10201 2.56046,-2.56046 1.98123,0.62477 3.46998,0.51081 4.69416,0 z"        
		                id="middle_ears"                        style="fill:#665544;stroke:#000000;stroke-width:1px;stroke-linecap:butt;stroke-linejoin:miter;stroke-opacity:1">
			<title                          id="title5284">right mandibular canine</title>
		</path>
	</g>
</svg>